<svg width="140"  height="70" xmlns="http://www.w3.org/2000/svg">
<image href="wall.svg" width="10" height="10" x="0" y="0" />
<image href="wall.svg" width="10" height="10" x="10" y="0" />
<image href="wall.svg" width="10" height="10" x="20" y="0" />
<image href="wall.svg" width="10" height="10" x="30" y="0" />
<image href="wall.svg" width="10" height="10" x="40" y="0" />
<image href="wall.svg" width="10" height="10" x="50" y="0" />
<image href="wall.svg" width="10" height="10" x="0" y="10" />
<image href="free.svg" width="10" height="10" x="10" y="10" />
<image href="Dark_Wanderer.svg" width="10" height="10" x="20" y="10" />
<image href="Fallen.svg" width="10" height="10" x="30" y="10" />
<image href="wall.svg" width="10" height="10" x="40" y="10" />
<image href="free.svg" width="10" height="10" x="50" y="10" />
<image href="wall.svg" width="10" height="10" x="0" y="20" />
<image href="free.svg" width="10" height="10" x="10" y="20" />
<image href="wall.svg" width="10" height="10" x="20" y="20" />
<image href="wall.svg" width="10" height="10" x="30" y="20" />
<image href="wall.svg" width="10" height="10" x="40" y="20" />
<image href="wall.svg" width="10" height="10" x="50" y="20" />
<image href="wall.svg" width="10" height="10" x="0" y="30" />
<image href="free.svg" width="10" height="10" x="10" y="30" />
<image href="free.svg" width="10" height="10" x="20" y="30" />
<image href="free.svg" width="10" height="10" x="30" y="30" />
<image href="wall.svg" width="10" height="10" x="40" y="30" />
<image href="free.svg" width="10" height="10" x="50" y="30" />
<image href="wall.svg" width="10" height="10" x="0" y="40" />
<image href="wall.svg" width="10" height="10" x="10" y="40" />
<image href="wall.svg" width="10" height="10" x="20" y="40" />
<image href="free.svg" width="10" height="10" x="30" y="40" />
<image href="wall.svg" width="10" height="10" x="40" y="40" />
<image href="free.svg" width="10" height="10" x="50" y="40" />
</svg>